<?xml version="1.0" standalone="no"?>
<!DOCTYPE svg PUBLIC "-//W3C//DTD SVG 20010904//EN"
 "http://www.w3.org/TR/2001/REC-SVG-20010904/DTD/svg10.dtd">
<svg version="1.0" xmlns="http://www.w3.org/2000/svg"
 width="512.000000pt" height="512.000000pt" viewBox="0 0 512.000000 512.000000"
 preserveAspectRatio="xMidYMid meet">
<metadata>
Created by potrace 1.14, written by Peter Selinger 2001-2017
</metadata>
<g transform="translate(0.000000,512.000000) scale(0.100000,-0.100000)"
fill="#000000" stroke="none">
<path d="M1430 3761 c0 -6 4 -13 10 -16 6 -3 7 1 4 9 -7 18 -14 21 -14 7z"/>
<path d="M2714 3756 c1 -8 5 -18 8 -22 4 -3 5 1 4 10 -1 8 -5 18 -8 22 -4 3
-5 -1 -4 -10z"/>
<path d="M3034 3756 c1 -8 5 -18 8 -22 4 -3 5 1 4 10 -1 8 -5 18 -8 22 -4 3
-5 -1 -4 -10z"/>
<path d="M3354 3756 c1 -8 5 -18 8 -22 4 -3 5 1 4 10 -1 8 -5 18 -8 22 -4 3
-5 -1 -4 -10z"/>
<path d="M3674 3756 c1 -8 5 -18 8 -22 4 -3 5 1 4 10 -1 8 -5 18 -8 22 -4 3
-5 -1 -4 -10z"/>
<path d="M4030 3760 c0 -5 5 -10 11 -10 5 0 7 5 4 10 -3 6 -8 10 -11 10 -2 0
-4 -4 -4 -10z"/>
<path d="M1835 3750 c-3 -5 -1 -10 4 -10 6 0 11 5 11 10 0 6 -2 10 -4 10 -3 0
-8 -4 -11 -10z"/>
<path d="M2315 3750 c-3 -5 -1 -10 4 -10 6 0 11 5 11 10 0 6 -2 10 -4 10 -3 0
-8 -4 -11 -10z"/>
<path d="M1070 3740 c-12 -7 -10 -9 7 -7 12 0 19 5 17 9 -6 10 -6 10 -24 -2z"/>
<path d="M1111 3743 c4 -21 -3 -30 -22 -28 -12 1 -44 -4 -72 -12 -28 -7 -64
-14 -79 -15 -15 -1 -28 -6 -28 -11 0 -5 -7 -7 -15 -3 -8 3 -15 1 -15 -4 0 -6
-5 -10 -11 -10 -5 0 -7 5 -3 12 4 7 3 8 -5 4 -6 -4 -20 -2 -29 5 -16 12 -16
11 0 -6 17 -18 16 -19 -19 -31 -27 -10 -41 -10 -50 -2 -11 8 -12 7 -6 -7 5
-15 3 -17 -11 -12 -10 4 -15 3 -11 -3 3 -5 -6 -12 -20 -16 -14 -3 -25 -10 -25
-16 0 -5 -4 -6 -10 -3 -5 3 -10 1 -10 -6 0 -7 -3 -9 -7 -6 -3 4 -12 -1 -20
-11 -9 -10 -12 -11 -7 -2 6 11 2 10 -13 -3 -11 -9 -23 -14 -28 -10 -4 5 -5 2
-1 -4 4 -8 -2 -17 -18 -25 -14 -6 -26 -16 -26 -21 0 -6 -2 -8 -5 -5 -3 3 -20
-7 -37 -22 -59 -54 -69 -61 -80 -54 -7 5 -8 3 -4 -5 9 -14 -24 -42 -38 -34 -5
4 -6 1 -2 -5 4 -7 -6 -25 -23 -41 -16 -16 -27 -32 -24 -35 4 -3 -1 -6 -11 -6
-9 0 -14 -4 -11 -10 3 -5 1 -10 -6 -10 -7 0 -9 -3 -6 -6 4 -4 -1 -14 -11 -23
-10 -9 -21 -24 -25 -34 -4 -10 -11 -16 -16 -13 -5 3 -8 -1 -7 -9 0 -7 -3 -13
-9 -12 -5 1 -9 6 -7 12 2 5 0 6 -4 2 -12 -12 -14 -38 -1 -30 7 4 8 0 4 -11 -4
-10 -7 -20 -7 -22 0 -3 -5 -2 -12 2 -6 4 -8 3 -4 -4 7 -11 -22 -82 -39 -94 -5
-4 -14 -4 -20 -1 -5 3 -5 0 1 -6 15 -16 6 -53 -10 -44 -6 4 -5 -1 3 -10 11
-14 11 -18 -2 -23 -9 -3 -20 -3 -26 0 -5 4 -13 1 -17 -5 -4 -7 -3 -9 2 -6 6 3
16 1 24 -4 13 -8 13 -10 0 -19 -13 -9 -13 -11 0 -20 11 -7 11 -10 2 -10 -7 0
-11 -4 -7 -9 3 -6 -3 -14 -12 -20 -12 -7 -13 -10 -4 -11 9 0 11 -6 6 -17 -4
-10 -8 -24 -8 -30 0 -7 -4 -13 -8 -13 -4 0 -5 -10 -1 -22 3 -12 1 -19 -5 -15
-5 3 -10 0 -10 -8 0 -8 4 -12 9 -9 4 3 8 0 8 -5 0 -6 -4 -11 -9 -11 -4 0 -8
-25 -7 -55 1 -51 -7 -71 -17 -42 -2 6 -4 -2 -3 -20 0 -17 4 -29 7 -27 4 2 10
-3 13 -12 4 -11 2 -15 -8 -11 -14 5 -36 -10 -36 -25 0 -4 5 -8 11 -8 5 0 8 4
4 9 -10 17 12 21 25 6 9 -10 9 -15 1 -15 -6 0 -11 -5 -11 -11 0 -5 3 -8 7 -6
5 3 7 -14 7 -36 -1 -23 3 -50 8 -61 7 -13 7 -16 -1 -12 -6 4 -11 2 -11 -3 0
-6 5 -11 10 -11 6 0 10 -11 10 -24 0 -14 4 -36 9 -49 7 -18 5 -31 -7 -48 l-16
-24 24 20 23 20 -6 -27 c-4 -16 -3 -28 4 -30 6 -2 13 -15 14 -29 2 -13 14 -49
29 -79 14 -29 26 -60 26 -67 0 -7 5 -13 10 -13 6 0 10 -7 10 -15 0 -8 5 -15
11 -15 5 0 8 -4 5 -9 -3 -5 1 -14 9 -21 8 -7 15 -18 15 -24 0 -7 9 -22 20 -34
12 -12 17 -22 13 -22 -4 0 -2 -4 6 -9 11 -7 12 -13 3 -24 -9 -11 -9 -14 3 -14
8 0 11 5 8 11 -4 6 1 5 10 -3 18 -14 24 -37 8 -27 -11 7 -8 -20 3 -31 4 -4 6
-2 4 6 -5 22 20 24 32 1 6 -11 31 -39 55 -61 24 -23 43 -46 42 -52 -1 -7 4
-11 11 -9 7 1 20 -5 29 -14 9 -8 27 -23 40 -31 15 -10 23 -23 20 -33 -2 -9 1
-17 8 -17 7 0 11 7 7 15 -4 12 0 11 21 -2 14 -10 28 -24 31 -33 4 -8 12 -13
20 -10 8 3 23 -3 34 -13 11 -10 23 -16 26 -13 3 4 6 1 6 -5 0 -6 7 -9 17 -5 9
4 14 2 10 -3 -3 -5 6 -14 19 -21 13 -6 22 -7 19 -3 -3 5 8 3 24 -3 17 -6 28
-15 25 -19 -3 -4 0 -8 6 -8 6 0 8 -5 4 -12 -4 -7 -3 -8 5 -4 6 4 9 12 6 17 -6
9 22 1 40 -11 6 -4 18 -6 28 -5 13 3 15 0 8 -9 -7 -8 -6 -17 1 -26 8 -13 9
-12 5 2 -3 9 1 19 9 22 23 9 26 7 18 -6 -5 -8 -2 -9 10 -5 25 10 67 -2 59 -17
-4 -6 1 -5 10 3 9 7 17 9 17 4 0 -6 12 -9 28 -8 15 1 35 -2 45 -7 12 -6 17 -5
18 4 0 7 4 4 9 -7 5 -11 9 -15 9 -9 1 5 25 10 56 11 35 0 52 -3 48 -10 -4 -6
-1 -7 7 -2 25 15 92 18 101 4 5 -8 9 -9 9 -3 0 16 90 17 90 1 0 -7 4 -6 10 3
6 10 10 11 10 3 0 -7 5 -13 11 -13 5 0 7 5 4 10 -3 6 -2 10 4 10 5 0 13 -5 16
-10 5 -8 11 -8 19 0 17 13 96 10 96 -4 0 -7 3 -7 8 1 4 6 24 11 44 11 24 0 36
-4 31 -11 -4 -6 -1 -7 7 -2 24 15 113 17 122 3 5 -8 8 -9 8 -2 0 16 90 17 90
1 0 -7 4 -6 10 3 6 10 10 11 10 3 0 -7 5 -13 11 -13 5 0 7 5 4 10 -3 5 -2 10
4 10 5 0 13 -5 16 -10 5 -8 11 -8 19 0 17 13 96 10 96 -4 0 -7 3 -7 8 1 4 6
24 11 44 11 24 0 36 -4 31 -11 -4 -6 -1 -7 7 -2 24 15 113 17 122 3 5 -8 8 -9
8 -2 0 16 90 17 90 1 0 -7 4 -6 10 3 6 10 10 11 10 3 0 -7 5 -13 11 -13 5 0 7
5 4 10 -8 13 8 13 22 -1 8 -8 13 -8 17 0 10 15 66 14 66 -1 0 -10 2 -10 8 -1
9 14 54 13 64 -2 5 -6 8 -5 8 3 0 16 80 13 80 -2 0 -7 4 -6 8 1 9 14 54 13 64
-2 5 -6 8 -5 8 3 0 16 80 13 80 -2 0 -7 4 -6 8 1 9 14 54 13 64 -2 5 -6 8 -5
8 3 0 16 80 13 80 -2 0 -7 4 -6 8 1 9 14 54 13 64 -2 5 -6 8 -5 8 3 0 16 80
13 80 -2 0 -7 4 -6 8 1 9 14 54 13 64 -2 5 -6 8 -5 8 3 0 16 80 13 80 -2 0 -7
4 -6 8 1 9 14 54 13 64 -2 5 -6 8 -5 8 3 0 16 80 13 80 -2 0 -7 4 -6 8 1 9 14
54 13 64 -2 5 -6 8 -5 8 3 0 16 80 13 80 -2 0 -7 3 -7 8 0 9 15 62 15 62 0 0
-7 3 -7 8 1 9 15 142 13 142 -2 0 -5 5 -3 10 5 9 13 10 13 10 0 0 -11 2 -12 8
-3 4 7 25 13 47 14 22 1 48 7 59 12 13 6 16 6 12 -2 -10 -15 7 -14 22 1 9 9
12 9 12 0 0 -7 5 -12 11 -12 5 0 7 5 4 10 -5 8 1 12 18 10 1 0 25 7 52 15 75
24 86 25 80 12 -4 -7 1 -3 10 8 14 17 17 18 25 5 8 -13 10 -12 10 3 0 9 5 17
11 17 5 0 8 -4 5 -8 -3 -5 1 -9 8 -9 8 0 12 6 10 12 -6 15 41 36 63 28 12 -5
14 -3 8 7 -6 10 -4 12 8 7 10 -4 16 -2 14 6 -1 7 4 11 11 10 6 -2 12 2 12 7 0
6 7 10 15 10 8 0 15 5 15 11 0 6 9 9 20 6 11 -3 18 -2 15 3 -5 7 46 47 53 41
2 -1 13 9 26 23 12 14 25 26 30 26 4 0 22 15 40 33 18 17 41 39 52 48 10 8 33
32 51 53 17 20 34 36 36 34 3 -2 9 1 14 6 5 5 3 6 -4 2 -24 -14 -13 10 21 44
19 19 33 38 31 41 -2 3 7 18 21 35 14 16 23 23 19 17 -9 -18 0 -16 16 4 8 9 9
14 3 10 -7 -4 -15 0 -18 9 -4 11 -2 15 7 11 8 -3 14 0 14 6 1 33 30 80 44 72
4 -3 9 2 12 10 4 10 1 12 -10 8 -11 -4 -14 -2 -11 8 3 8 11 13 17 12 6 -2 11
2 11 7 0 6 -5 10 -11 10 -5 0 -7 5 -4 10 4 6 12 7 18 3 8 -4 7 -1 -1 9 -9 11
-10 18 -2 23 6 3 7 11 4 17 -4 7 2 8 17 3 23 -7 23 -7 4 8 -17 13 -18 18 -6
29 8 8 11 8 7 1 -3 -6 -2 -14 3 -17 10 -6 9 12 -1 29 -8 13 9 55 22 55 5 0 10
5 10 11 0 5 -4 7 -10 4 -5 -3 -10 -2 -10 4 0 5 6 12 13 14 9 4 9 6 -1 6 -7 1
-11 5 -7 11 3 5 12 7 19 4 7 -3 19 3 27 13 13 16 12 17 -3 5 -22 -18 -38 -7
-31 21 3 12 5 37 5 54 0 18 4 30 9 27 5 -3 9 0 9 5 0 6 -4 11 -10 11 -5 0 -7
7 -4 15 4 8 10 13 14 10 5 -3 12 -1 15 5 4 6 3 10 -2 9 -19 -3 -33 2 -33 12 0
5 5 7 11 3 8 -4 8 -1 1 12 -13 25 -5 44 16 38 9 -2 7 1 -5 7 -25 13 -31 39
-10 39 8 0 7 4 -3 10 -8 5 -11 10 -6 10 5 0 3 7 -4 15 -7 9 -8 15 -2 15 12 0
4 39 -12 59 -9 11 -7 13 12 7 13 -5 22 -3 22 3 0 6 -3 10 -7 10 -19 -3 -30 2
-30 14 0 6 -4 21 -9 31 -5 13 -4 17 4 12 6 -3 14 -1 18 5 4 7 3 9 -3 6 -14 -9
-31 13 -28 36 2 9 -1 17 -6 17 -5 0 -8 3 -7 8 3 8 -28 97 -43 126 -6 10 -12
27 -14 37 -2 11 -11 27 -20 35 -15 15 -15 18 1 35 15 17 15 18 -7 14 -18 -3
-27 2 -36 22 -7 14 -10 30 -7 35 3 5 0 7 -7 6 -6 -2 -14 3 -17 11 -3 9 0 11 8
6 9 -6 11 -4 6 4 -5 7 -11 10 -14 7 -7 -7 -42 23 -42 36 0 5 4 7 8 4 5 -3 9 1
9 8 0 7 -7 11 -16 9 -9 -2 -23 6 -31 18 -8 12 -39 45 -68 75 -30 29 -51 58
-47 63 3 7 0 8 -10 5 -8 -4 -22 -1 -30 6 -18 15 -21 45 -3 34 7 -5 8 -3 3 6
-6 10 -10 10 -19 -2 -8 -11 -14 -12 -23 -4 -22 20 -38 31 -75 51 -21 11 -38
23 -38 27 0 11 23 6 33 -7 5 -6 7 -4 4 5 -4 18 -26 20 -46 6 -12 -9 -13 -7 -8
6 3 10 -1 22 -11 30 -15 12 -16 11 -3 -4 12 -16 11 -18 -3 -18 -9 0 -16 5 -16
10 0 6 -8 10 -18 10 -10 0 -27 7 -38 15 -12 8 -24 11 -28 8 -3 -3 -6 1 -6 11
0 10 5 14 12 10 7 -5 8 -3 3 6 -6 10 -11 9 -22 -5 -7 -11 -13 -13 -13 -6 0 7
-5 9 -12 5 -6 -4 -17 1 -25 11 -9 14 -13 15 -13 4 -1 -10 -4 -10 -14 4 -9 12
-15 14 -18 6 -3 -9 -9 -9 -23 -1 -24 13 -74 26 -97 25 -10 0 -18 4 -18 10 0 6
-3 7 -7 4 -3 -4 -13 -1 -21 6 -13 9 -14 9 -8 0 10 -18 -4 -16 -28 5 -15 12
-17 13 -9 1 11 -13 9 -15 -8 -14 -11 1 -25 8 -30 16 -6 10 -9 10 -9 2 0 -7 -5
-13 -11 -13 -5 0 -7 5 -3 12 5 7 3 8 -6 3 -8 -5 -60 -9 -117 -9 -84 -1 -102 2
-98 13 4 11 3 11 -10 1 -23 -19 -95 -20 -96 -1 0 14 -1 14 -7 1 -9 -20 -55
-22 -47 -2 4 11 2 12 -7 5 -22 -17 -50 -24 -42 -11 5 7 3 8 -5 4 -7 -5 -35 -9
-62 -10 -39 -1 -48 1 -44 13 4 11 3 12 -10 1 -23 -19 -95 -20 -96 -1 0 14 -1
14 -7 1 -9 -20 -55 -22 -47 -2 4 11 2 12 -7 5 -22 -17 -50 -24 -42 -11 5 7 3
8 -5 4 -7 -5 -35 -9 -62 -10 -39 -1 -48 1 -44 13 4 11 3 12 -10 1 -23 -19 -95
-20 -96 -1 0 14 -1 14 -7 1 -9 -20 -55 -22 -47 -2 4 11 2 12 -7 5 -22 -17 -50
-24 -42 -11 5 7 3 8 -5 4 -7 -5 -35 -9 -62 -10 -39 -1 -48 1 -44 13 4 11 3 12
-10 1 -23 -19 -95 -20 -96 -1 0 14 -1 14 -7 1 -9 -20 -55 -22 -47 -2 4 11 2
12 -7 5 -19 -14 -50 -24 -44 -14 3 5 -1 11 -9 14 -9 4 -12 1 -9 -7 5 -13 -29
-16 -42 -4 -3 4 -12 4 -19 2 -23 -9 -89 -11 -118 -3 -15 4 -25 5 -23 1 8 -14
-253 -6 -269 8 -13 11 -14 10 -10 -2 4 -10 0 -14 -14 -13 -11 1 -23 4 -27 7
-3 4 -12 4 -19 2 -23 -9 -89 -11 -118 -3 -15 4 -25 5 -23 1 8 -14 -253 -6
-269 8 -13 11 -14 10 -10 -2 4 -10 0 -14 -14 -13 -11 1 -23 4 -27 7 -3 3 -18
3 -32 -1 -32 -8 -65 -7 -82 4 -8 5 -11 4 -7 -2 4 -6 -1 -10 -11 -9 -9 0 -20 8
-24 16 -5 12 -7 11 -7 -3 -1 -10 -6 -15 -11 -12 -6 4 -8 10 -6 14 3 4 -1 8 -8
8 -8 0 -12 -6 -10 -12 5 -13 -24 -14 -45 0 -10 6 -12 4 -6 -6 5 -8 -2 -5 -14
5 -16 15 -20 16 -16 5 4 -12 0 -15 -17 -13 -13 1 -25 3 -28 4 -3 1 -9 2 -14 1
-40 -8 -86 -9 -81 -1 3 5 1 12 -5 15 -6 4 -10 3 -9 -2z m2041 -387 c31 -4 75
-13 98 -21 22 -8 41 -13 43 -12 1 1 28 -11 61 -27 99 -48 167 -131 193 -233
33 -130 6 -245 -93 -401 -19 -29 -34 -56 -34 -61 0 -5 -3 -11 -7 -13 -12 -5
-53 -66 -53 -78 0 -5 -4 -10 -10 -10 -5 0 -10 -7 -10 -15 0 -8 -4 -15 -10 -15
-5 0 -10 -7 -10 -15 0 -8 -4 -15 -10 -15 -5 0 -10 -5 -10 -11 0 -6 -29 -54
-65 -106 -36 -52 -65 -97 -65 -99 0 -2 -25 -40 -55 -86 -30 -45 -55 -86 -55
-90 0 -4 67 -7 149 -7 l149 0 -1 49 c0 37 6 59 26 89 15 22 27 43 27 46 0 4
18 33 40 65 22 32 40 63 40 69 0 5 3 11 8 13 6 2 82 119 117 180 6 10 84 136
175 280 91 144 166 268 168 275 2 7 8 13 13 13 5 0 9 6 9 14 0 8 3 16 8 18 8
4 72 106 72 116 0 16 60 72 77 73 77 5 213 4 237 -3 57 -15 55 1 56 -555 0
-282 3 -513 8 -514 4 0 26 -2 48 -3 48 -3 90 -26 92 -53 6 -70 2 -184 -8 -202
-14 -27 -49 -41 -100 -41 l-39 0 -3 -91 c-3 -87 -5 -93 -30 -112 -24 -18 -43
-20 -165 -21 -76 -1 -151 3 -166 7 -40 13 -54 50 -53 140 l2 77 -241 0 -240 0
0 -88 c0 -73 -3 -92 -19 -107 -10 -11 -26 -21 -35 -23 -9 -2 -224 -4 -478 -4
l-462 -2 -26 28 c-14 15 -25 37 -25 49 0 12 25 59 54 105 30 45 53 82 50 82
-3 0 1 7 9 15 8 8 25 31 38 52 13 21 29 44 36 51 7 8 11 17 8 22 -3 5 -1 10 3
12 5 1 45 59 90 128 45 69 85 130 91 136 5 7 7 15 4 18 -4 3 -1 6 5 6 7 0 12
5 12 11 0 6 6 17 13 24 26 30 37 45 36 47 -2 3 85 141 151 238 35 51 73 119
75 130 0 3 3 10 7 16 4 5 10 33 14 61 6 50 5 52 -25 71 -23 14 -53 20 -111 21
-138 3 -184 -20 -216 -108 -29 -79 -45 -90 -123 -85 -157 9 -185 23 -184 91 1
52 21 126 44 163 5 8 13 24 18 35 25 58 150 154 225 172 120 29 203 34 338 19z
m-2076 -21 c20 -4 36 -16 43 -31 8 -18 11 -242 11 -763 0 -727 0 -739 -20
-764 l-21 -26 -161 0 c-125 0 -166 3 -182 15 -12 8 -22 19 -22 24 -1 6 -3 11
-4 13 -1 1 -3 277 -4 614 -1 337 -4 615 -8 618 -3 3 -21 8 -39 10 -37 5 -68
35 -70 69 -1 23 -1 141 0 169 1 21 38 60 51 52 5 -3 11 -2 13 2 6 10 370 8
413 -2z m401 -175 c7 0 46 -48 54 -65 5 -11 31 -54 59 -95 27 -41 57 -90 66
-107 9 -18 20 -33 25 -33 5 0 9 -4 9 -9 0 -12 202 -335 212 -339 5 -2 8 -9 8
-15 0 -7 7 -20 14 -30 12 -16 15 -14 40 23 14 22 23 40 19 40 -5 0 -3 4 3 8 9
6 45 59 109 162 70 113 75 118 125 126 8 1 24 5 35 7 28 6 63 -12 72 -37 23
-69 19 -108 -16 -160 -17 -24 -31 -49 -31 -55 0 -6 -4 -11 -9 -11 -5 0 -14
-13 -21 -30 -7 -16 -16 -30 -21 -30 -5 0 -8 -3 -7 -7 2 -8 -51 -96 -72 -120
-5 -7 -10 -15 -10 -17 0 -3 -16 -31 -36 -62 l-36 -56 24 -44 c12 -24 26 -44
30 -44 5 0 8 -4 8 -10 0 -5 17 -36 39 -69 35 -55 38 -64 31 -103 -10 -53 -39
-78 -83 -71 -17 3 -40 9 -49 14 -18 10 -98 124 -98 140 0 17 -19 9 -25 -11 -3
-11 -10 -20 -14 -20 -5 0 -14 -13 -21 -30 -7 -16 -16 -30 -21 -30 -5 0 -9 -6
-9 -14 0 -21 -23 -35 -77 -49 -77 -20 -101 -1 -117 91 -7 39 -5 44 81 179 l64
101 -68 109 c-85 136 -110 175 -123 190 -5 7 -10 14 -10 17 0 2 -48 80 -107
173 -101 159 -143 228 -170 276 -12 21 -8 67 9 100 13 25 47 36 83 26 16 -5
31 -9 32 -9z"/>
<path d="M4003 2630 c-3 -11 -9 -20 -14 -20 -5 0 -9 -7 -9 -15 0 -8 -4 -15 -9
-15 -5 0 -13 -10 -17 -22 -4 -13 -10 -25 -13 -28 -4 -3 -27 -39 -51 -80 -61
-103 -62 -104 -87 -144 -12 -20 -19 -37 -15 -39 6 -3 167 -1 212 2 13 1 15 29
15 191 0 104 -2 190 -3 190 -2 0 -6 -9 -9 -20z"/>
<path d="M1920 2339 c0 -6 -4 -7 -10 -4 -5 3 -10 -1 -10 -9 0 -9 -4 -16 -9
-16 -31 0 -4 -98 28 -102 54 -5 83 10 95 49 8 26 -11 71 -35 78 -37 12 -59 13
-59 4z"/>
<path d="M1910 3739 c0 -5 5 -7 10 -4 6 3 10 8 10 11 0 2 -4 4 -10 4 -5 0 -10
-5 -10 -11z"/>
<path d="M2390 3739 c0 -5 5 -7 10 -4 6 3 10 8 10 11 0 2 -4 4 -10 4 -5 0 -10
-5 -10 -11z"/>
<path d="M1010 3719 c0 -5 5 -7 10 -4 6 3 10 8 10 11 0 2 -4 4 -10 4 -5 0 -10
-5 -10 -11z"/>
<path d="M878 3693 c7 -3 16 -2 19 1 4 3 -2 6 -13 5 -11 0 -14 -3 -6 -6z"/>
<path d="M775 3661 c-3 -5 -2 -12 3 -15 5 -3 9 1 9 9 0 17 -3 19 -12 6z"/>
<path d="M559 3533 c-13 -16 -12 -17 4 -4 9 7 17 15 17 17 0 8 -8 3 -21 -13z"/>
<path d="M4550 3545 c0 -7 30 -13 34 -7 3 4 -4 9 -15 9 -10 1 -19 0 -19 -2z"/>
<path d="M480 3468 c-10 -21 -10 -21 3 -6 8 10 18 14 22 10 5 -4 5 -1 1 6 -10
17 -14 15 -26 -10z"/>
<path d="M4635 3470 c-3 -6 1 -7 9 -4 18 7 21 14 7 14 -6 0 -13 -4 -16 -10z"/>
<path d="M4710 3420 c0 -5 5 -10 11 -10 5 0 7 5 4 10 -3 6 -8 10 -11 10 -2 0
-4 -4 -4 -10z"/>
<path d="M4750 3370 c-9 -6 -10 -10 -3 -10 6 0 15 5 18 10 8 12 4 12 -15 0z"/>
<path d="M295 3321 c-3 -5 -2 -12 3 -15 5 -3 9 1 9 9 0 17 -3 19 -12 6z"/>
<path d="M4780 3326 c0 -2 9 -6 20 -9 11 -3 18 -1 14 4 -5 9 -34 13 -34 5z"/>
<path d="M280 3280 c-9 -6 -10 -10 -3 -10 6 0 15 5 18 10 8 12 4 12 -15 0z"/>
<path d="M4840 3260 c-9 -6 -10 -10 -3 -10 6 0 15 5 18 10 8 12 4 12 -15 0z"/>
<path d="M4890 3196 c0 -8 4 -17 9 -20 5 -4 7 3 4 14 -6 23 -13 26 -13 6z"/>
<path d="M176 3147 c3 -10 9 -15 12 -12 3 3 0 11 -7 18 -10 9 -11 8 -5 -6z"/>
<path d="M4936 3113 c-6 -14 -5 -15 5 -6 7 7 10 15 7 18 -3 3 -9 -2 -12 -12z"/>
<path d="M156 3101 c-3 -5 2 -15 12 -22 15 -12 16 -12 5 2 -7 9 -10 19 -6 22
3 4 4 7 0 7 -3 0 -8 -4 -11 -9z"/>
<path d="M4960 3046 c0 -2 7 -9 15 -16 13 -11 14 -10 9 4 -5 14 -24 23 -24 12z"/>
<path d="M5015 2920 c3 -5 8 -10 11 -10 2 0 4 5 4 10 0 6 -5 10 -11 10 -5 0
-7 -4 -4 -10z"/>
<path d="M5026 2862 c-3 -5 1 -9 9 -9 8 0 12 4 9 9 -3 4 -7 8 -9 8 -2 0 -6 -4
-9 -8z"/>
<path d="M85 2822 c-10 -7 -18 -32 -10 -32 2 0 9 9 15 20 12 22 11 24 -5 12z"/>
<path d="M40 2440 c-12 -7 -10 -9 7 -7 12 0 19 5 17 9 -6 10 -6 10 -24 -2z"/>
<path d="M100 2166 c0 -2 8 -10 18 -17 15 -13 16 -12 3 4 -13 16 -21 21 -21
13z"/>
<path d="M4990 2165 c0 -7 30 -13 34 -7 3 4 -4 9 -15 9 -10 1 -19 0 -19 -2z"/>
<path d="M106 2118 c3 -5 10 -6 15 -3 13 9 11 12 -6 12 -8 0 -12 -4 -9 -9z"/>
<path d="M135 2111 c-6 -11 13 -26 22 -17 4 3 1 6 -6 6 -7 0 -9 5 -6 10 3 6 4
10 1 10 -3 0 -7 -4 -11 -9z"/>
<path d="M150 2076 c0 -2 8 -10 18 -17 15 -13 16 -12 3 4 -13 16 -21 21 -21
13z"/>
<path d="M170 1999 c0 -5 5 -7 10 -4 6 3 10 8 10 11 0 2 -4 4 -10 4 -5 0 -10
-5 -10 -11z"/>
<path d="M200 1970 c6 -11 13 -20 16 -20 2 0 0 9 -6 20 -6 11 -13 20 -16 20
-2 0 0 -9 6 -20z"/>
<path d="M220 1940 c-9 -6 -10 -10 -3 -10 6 0 15 5 18 10 8 12 4 12 -15 0z"/>
<path d="M4891 1924 c0 -11 3 -14 6 -6 3 7 2 16 -1 19 -3 4 -6 -2 -5 -13z"/>
<path d="M4831 1844 c0 -11 3 -14 6 -6 3 7 2 16 -1 19 -3 4 -6 -2 -5 -13z"/>
<path d="M4775 1779 c-4 -6 -5 -12 -2 -15 2 -3 7 2 10 11 7 17 1 20 -8 4z"/>
<path d="M384 1732 c0 -10 8 -19 17 -19 16 -2 17 0 1 18 -9 10 -17 19 -17 19
0 0 -1 -8 -1 -18z"/>
<path d="M4690 1690 c-9 -6 -10 -10 -3 -10 6 0 15 5 18 10 8 12 4 12 -15 0z"/>
<path d="M4670 1659 c0 -5 5 -7 10 -4 6 3 10 8 10 11 0 2 -4 4 -10 4 -5 0 -10
-5 -10 -11z"/>
<path d="M500 1632 c0 -6 -8 -9 -17 -6 -15 5 -16 4 -3 -5 16 -11 40 3 27 16
-4 3 -7 1 -7 -5z"/>
<path d="M590 1560 c0 -5 5 -10 11 -10 5 0 7 5 4 10 -3 6 -8 10 -11 10 -2 0
-4 -4 -4 -10z"/>
<path d="M4534 1555 c3 -23 12 -26 13 -5 1 11 -2 20 -7 20 -4 0 -7 -7 -6 -15z"/>
<path d="M650 1531 c0 -7 -4 -9 -10 -6 -5 3 -10 1 -10 -4 0 -6 4 -11 9 -11 13
0 25 20 17 27 -3 4 -6 1 -6 -6z"/>
<path d="M4350 1470 c0 -5 5 -10 11 -10 5 0 7 5 4 10 -3 6 -8 10 -11 10 -2 0
-4 -4 -4 -10z"/>
<path d="M780 1460 c-9 -6 -10 -10 -3 -10 6 0 15 5 18 10 8 12 4 12 -15 0z"/>
<path d="M795 1440 c-3 -5 -1 -10 4 -10 6 0 11 5 11 10 0 6 -2 10 -4 10 -3 0
-8 -4 -11 -10z"/>
<path d="M4226 1423 c-6 -14 -5 -15 5 -6 7 7 10 15 7 18 -3 3 -9 -2 -12 -12z"/>
<path d="M850 1421 c0 -6 4 -13 10 -16 6 -3 7 1 4 9 -7 18 -14 21 -14 7z"/>
<path d="M986 1395 c4 -8 11 -15 16 -15 6 0 5 6 -2 15 -7 8 -14 15 -16 15 -2
0 -1 -7 2 -15z"/>
<path d="M1110 1376 c0 -2 8 -10 18 -17 15 -13 16 -12 3 4 -13 16 -21 21 -21
13z"/>
<path d="M1173 1365 c0 -8 4 -15 9 -15 4 0 8 4 8 9 0 6 -4 12 -8 15 -5 3 -9
-1 -9 -9z"/>
<path d="M1233 1365 c0 -8 4 -15 9 -15 4 0 8 4 8 9 0 6 -4 12 -8 15 -5 3 -9
-1 -9 -9z"/>
<path d="M1390 1374 c0 -1 6 -7 14 -13 10 -9 15 -8 19 2 3 8 -3 13 -14 13 -11
0 -19 -1 -19 -2z"/>
<path d="M1594 1368 c10 -6 22 -6 26 -2 5 5 -3 10 -18 11 -22 1 -24 0 -8 -9z"/>
<path d="M1690 1371 c-8 -6 -19 -7 -25 -3 -5 3 -4 -2 4 -11 7 -9 16 -17 19
-17 3 0 2 3 -1 7 -4 3 1 12 11 19 19 15 14 18 -8 5z"/>
<path d="M1870 1374 c0 -1 6 -7 14 -13 10 -9 15 -8 19 2 3 8 -3 13 -14 13 -11
0 -19 -1 -19 -2z"/>
<path d="M2074 1368 c10 -6 22 -6 26 -2 5 5 -3 10 -18 11 -22 1 -24 0 -8 -9z"/>
<path d="M2170 1371 c-8 -6 -19 -7 -25 -3 -5 3 -4 -2 4 -11 7 -9 16 -17 19
-17 3 0 2 3 -1 7 -4 3 1 12 11 19 19 15 14 18 -8 5z"/>
<path d="M2350 1374 c0 -1 6 -7 14 -13 10 -9 15 -8 19 2 3 8 -3 13 -14 13 -11
0 -19 -1 -19 -2z"/>
<path d="M2597 1363 c3 -7 6 -13 8 -13 1 0 7 6 13 13 8 10 6 13 -7 13 -11 0
-17 -6 -14 -13z"/>
<path d="M2670 1370 c-8 -5 -12 -12 -9 -15 4 -3 12 1 19 10 14 17 11 19 -10 5z"/>
<path d="M2757 1363 c3 -7 6 -13 8 -13 1 0 7 6 13 13 8 10 6 13 -7 13 -11 0
-17 -6 -14 -13z"/>
<path d="M2830 1370 c-8 -5 -12 -12 -9 -15 4 -3 12 1 19 10 14 17 11 19 -10 5z"/>
<path d="M2917 1363 c3 -7 6 -13 8 -13 1 0 7 6 13 13 8 10 6 13 -7 13 -11 0
-17 -6 -14 -13z"/>
<path d="M2990 1370 c-8 -5 -12 -12 -9 -15 4 -3 12 1 19 10 14 17 11 19 -10 5z"/>
<path d="M3077 1363 c3 -7 6 -13 8 -13 1 0 7 6 13 13 8 10 6 13 -7 13 -11 0
-17 -6 -14 -13z"/>
<path d="M3150 1370 c-8 -5 -12 -12 -9 -15 4 -3 12 1 19 10 14 17 11 19 -10 5z"/>
<path d="M3237 1363 c3 -7 6 -13 8 -13 1 0 7 6 13 13 8 10 6 13 -7 13 -11 0
-17 -6 -14 -13z"/>
<path d="M3310 1370 c-8 -5 -12 -12 -9 -15 4 -3 12 1 19 10 14 17 11 19 -10 5z"/>
<path d="M3397 1363 c3 -7 6 -13 8 -13 1 0 7 6 13 13 8 10 6 13 -7 13 -11 0
-17 -6 -14 -13z"/>
<path d="M3470 1370 c-8 -5 -12 -12 -9 -15 4 -3 12 1 19 10 14 17 11 19 -10 5z"/>
<path d="M3557 1363 c3 -7 6 -13 8 -13 1 0 7 6 13 13 8 10 6 13 -7 13 -11 0
-17 -6 -14 -13z"/>
<path d="M3630 1370 c-8 -5 -12 -12 -9 -15 4 -3 12 1 19 10 14 17 11 19 -10 5z"/>
<path d="M3717 1363 c3 -7 6 -13 8 -13 1 0 7 6 13 13 8 10 6 13 -7 13 -11 0
-17 -6 -14 -13z"/>
<path d="M3790 1370 c-8 -5 -12 -12 -9 -15 4 -3 12 1 19 10 14 17 11 19 -10 5z"/>
<path d="M3850 1370 c-9 -6 -10 -10 -3 -10 6 0 15 5 18 10 8 12 4 12 -15 0z"/>
<path d="M2696 1353 c-6 -14 -5 -15 5 -6 7 7 10 15 7 18 -3 3 -9 -2 -12 -12z"/>
<path d="M2856 1353 c-6 -14 -5 -15 5 -6 7 7 10 15 7 18 -3 3 -9 -2 -12 -12z"/>
<path d="M3016 1353 c-6 -14 -5 -15 5 -6 7 7 10 15 7 18 -3 3 -9 -2 -12 -12z"/>
<path d="M3176 1353 c-6 -14 -5 -15 5 -6 7 7 10 15 7 18 -3 3 -9 -2 -12 -12z"/>
<path d="M3336 1353 c-6 -14 -5 -15 5 -6 7 7 10 15 7 18 -3 3 -9 -2 -12 -12z"/>
<path d="M3496 1353 c-6 -14 -5 -15 5 -6 7 7 10 15 7 18 -3 3 -9 -2 -12 -12z"/>
<path d="M3656 1353 c-6 -14 -5 -15 5 -6 7 7 10 15 7 18 -3 3 -9 -2 -12 -12z"/>
<path d="M3816 1353 c-6 -14 -5 -15 5 -6 7 7 10 15 7 18 -3 3 -9 -2 -12 -12z"/>
</g>
</svg>
